<?xml version="1.0" standalone="no"?>
<!DOCTYPE svg PUBLIC "-//W3C//DTD SVG 20010904//EN"
 "http://www.w3.org/TR/2001/REC-SVG-20010904/DTD/svg10.dtd">
<svg version="1.0" xmlns="http://www.w3.org/2000/svg"
 width="512.000000pt" height="512.000000pt" viewBox="0 0 512.000000 512.000000"
 preserveAspectRatio="xMidYMid meet">
<metadata>
Created by potrace 1.11, written by Peter Selinger 2001-2013
</metadata>
<g transform="translate(0.000000,512.000000) scale(0.100000,-0.100000)"
fill="#000000" stroke="none">
<path d="M2844 3879 c-33 -12 -42 -30 -83 -174 -35 -127 -116 -404 -368 -1275
-253 -874 -313 -1087 -313 -1106 0 -31 28 -50 100 -70 78 -20 97 -20 120 1 14
13 44 94 39 107 0 2 4 16 10 31 9 24 87 291 268 917 24 85 58 202 75 260 17
58 34 119 38 135 5 17 49 172 100 345 171 587 210 727 210 747 0 11 -8 27 -17
35 -25 22 -156 56 -179 47z"/>
<path d="M1265 3058 c-254 -255 -465 -471 -468 -481 -4 -10 0 -30 8 -45 7 -15
218 -231 468 -479 392 -392 458 -453 483 -453 23 0 43 14 90 63 71 72 80 91
59 123 -8 13 -184 192 -390 399 l-376 375 381 380 c209 210 384 389 390 400
15 28 4 48 -64 118 -47 48 -67 62 -89 62 -25 0 -94 -65 -492 -462z"/>
<path d="M3274 3458 c-72 -74 -80 -92 -59 -125 9 -13 185 -193 391 -399 l375
-374 -387 -387 c-334 -334 -387 -391 -387 -416 0 -41 117 -157 158 -157 23 0
105 78 485 458 251 251 463 467 469 479 9 18 9 29 -3 50 -8 16 -219 232 -469
481 -391 389 -458 452 -483 452 -23 0 -43 -14 -90 -62z"/>
</g>
</svg>
